# Blender 4.2.3 LTS
# www.blender.org
mtllib unfinished_floor.mtl
o unfinished_floor
v 0.000000 0.000000 1.000000
v 0.000000 0.666667 1.000000
v 0.000000 0.000000 0.000000
v 0.000000 0.666667 -0.000000
v 1.000000 0.000000 1.000000
v 1.000000 0.666667 1.000000
v 1.000000 0.000000 0.000000
v 1.000000 0.666667 -0.000000
v 0.726219 0.000000 0.000000
v 0.273781 0.000000 0.000000
v 0.273781 0.666667 -0.000000
v 0.726219 0.666667 -0.000000
v 0.726219 0.666667 1.000000
v 0.273781 0.666667 1.000000
v 0.000000 0.580498 1.000000
v 0.000000 0.580498 -0.000000
v 1.000000 0.580498 -0.000000
v 1.000000 0.580498 1.000000
v 0.699269 0.019098 1.000000
v 0.699206 0.178252 1.000000
v 0.273781 0.580498 -0.000000
v 0.726219 0.580498 -0.000000
v 0.273781 0.000000 1.000000
v 0.726219 0.000000 1.000000
v 0.726219 0.580498 1.000000
v 0.273781 0.580498 1.000000
v 0.386213 0.043964 0.870821
v 0.613787 0.043964 0.870821
v 0.300909 0.019223 1.000000
v 0.300924 0.510301 1.000000
v 0.000000 0.172853 -0.000000
v 1.000000 0.172853 -0.000000
v 0.983652 0.189201 1.000000
v 0.742567 0.189201 1.000000
v 0.257433 0.189201 1.000000
v 0.273781 0.172853 -0.000000
v 0.726219 0.172853 -0.000000
v 0.016348 0.189201 1.000000
v 0.681039 0.196907 0.985054
v 0.318961 0.196907 0.985054
v 0.637050 0.196907 0.885767
v 0.362950 0.196907 0.885767
v 0.016348 0.492503 1.000000
v 0.000000 0.508851 -0.000000
v 1.000000 0.508851 -0.000000
v 0.983652 0.492503 1.000000
v 0.742567 0.492503 1.000000
v 0.257433 0.492503 1.000000
v 0.273781 0.508851 -0.000000
v 0.726219 0.508851 -0.000000
v 0.681039 0.494562 0.985054
v 0.318961 0.494562 0.985054
v 0.637050 0.494562 0.885767
v 0.362950 0.494562 0.885767
v 1.000000 0.508851 1.000000
v 1.000000 0.172853 1.000000
v 0.726219 0.508851 1.000000
v 0.726219 0.172853 1.000000
v 0.273781 0.508851 1.000000
v 0.273781 0.172853 1.000000
v 0.613787 0.494269 0.870821
v 0.613787 0.180559 0.870821
v 0.386213 0.494269 0.870821
v 0.386213 0.180559 0.870821
v 0.000000 0.172853 1.000000
v 0.000000 0.508851 1.000000
v 0.983652 0.492503 0.959862
v 0.983652 0.214952 0.959862
v 0.742567 0.492503 0.959862
v 0.742567 0.214952 0.959862
v 0.257433 0.492503 0.959862
v 0.257433 0.214952 0.959862
v 0.717737 0.494562 0.968795
v 0.717737 0.222657 0.968795
v 0.282263 0.494562 0.968795
v 0.282263 0.222657 0.968795
v 0.673748 0.494562 0.869508
v 0.673748 0.222657 0.869508
v 0.326252 0.494562 0.869508
v 0.326252 0.222657 0.869508
v 0.016348 0.214952 0.959862
v 0.016348 0.492503 0.959862
v 0.369572 0.027323 0.870821
v 0.630428 0.027323 0.870821
v 0.630428 0.180559 0.870821
v 0.369572 0.180559 0.870821
v 0.630428 0.510910 0.870821
v 0.369572 0.510910 0.870821
v 0.613787 0.180559 0.835090
v 0.386213 0.180559 0.835090
v 0.386213 0.043964 0.835090
v 0.613787 0.043964 0.835090
v 0.613787 0.494269 0.835090
v 0.386213 0.494269 0.835090
v 0.699063 0.553341 1.000000
v 0.300937 0.553341 1.000000
v 0.630428 0.525815 0.870821
v 0.619936 0.541939 0.886945
v 0.627355 0.537217 0.875543
v 0.380064 0.541939 0.886945
v 0.369572 0.525815 0.870821
v 0.372645 0.537217 0.875543
v 0.300913 0.178276 1.000000
v 0.699080 0.510300 1.000000
v 0.699073 0.526711 1.000000
v 0.300928 0.523312 1.000000
v 0.000000 0.544675 1.000000
v 0.000000 0.544675 -0.000000
v 1.000000 0.544675 -0.000000
v 1.000000 0.544675 1.000000
v 0.726219 0.544675 1.000000
v 0.273781 0.544675 1.000000
v 0.273781 0.544675 -0.000000
v 0.726219 0.544675 -0.000000
v 0.500000 0.000000 0.000000
v 0.500000 0.666667 -0.000000
v 0.500000 0.666667 1.000000
v 0.500000 0.580498 -0.000000
v 0.500000 0.629922 1.000000
v 0.500000 0.027323 0.870821
v 0.500000 0.000000 1.000000
v 0.500000 0.172853 -0.000000
v 0.500000 0.510910 0.870821
v 0.500000 0.508851 -0.000000
v 0.500000 0.043964 0.870821
v 0.500000 0.494269 0.870821
v 0.500000 0.180559 0.835090
v 0.500000 0.043964 0.835090
v 0.500000 0.494269 0.835090
v 0.500000 0.541939 0.886945
v 0.500000 0.537217 0.875543
v 0.500000 0.525815 0.870821
v 0.500089 0.019161 1.000000
v 0.500000 0.604789 1.000000
v 0.500000 0.544675 -0.000000
v 0.296402 0.000000 0.000000
v 0.296402 0.666667 1.000000
v 0.306879 0.595229 1.000000
v 0.296403 0.666667 -0.000000
v 0.296403 0.580498 -0.000000
v 0.296402 0.172853 -0.000000
v 0.296403 0.508851 -0.000000
v 0.320844 0.570255 1.000000
v 0.296403 0.544675 -0.000000
v 0.703597 0.666667 -0.000000
v 0.703597 0.580498 -0.000000
v 0.703597 0.172853 -0.000000
v 0.703597 0.508851 -0.000000
v 0.679156 0.570255 1.000000
v 0.703597 0.544675 -0.000000
v 0.703597 0.000000 0.000000
v 0.703597 0.666667 1.000000
v 0.693121 0.595229 1.000000
v 0.398201 0.666667 -0.000000
v 0.398201 0.580498 -0.000000
v 0.398201 0.172853 -0.000000
v 0.398201 0.508851 -0.000000
v 0.392247 0.589930 1.000000
v 0.398201 0.544675 -0.000000
v 0.398201 0.000000 0.000000
v 0.398201 0.666667 1.000000
v 0.398201 0.612974 1.000000
v 0.601799 0.000000 0.000000
v 0.601799 0.666667 1.000000
v 0.601799 0.612974 1.000000
v 0.601799 0.666667 -0.000000
v 0.601799 0.580498 -0.000000
v 0.601799 0.172853 -0.000000
v 0.601799 0.508851 -0.000000
v 0.607753 0.589930 1.000000
v 0.601799 0.544675 -0.000000
v 0.386890 0.000000 1.000000
v 0.434786 0.510910 0.870821
v 0.443106 0.494269 0.870821
v 0.443106 0.180559 0.835090
v 0.443106 0.494269 0.835090
v 0.440032 0.541939 0.886945
v 0.400499 0.019192 1.000000
v 0.434786 0.027323 0.870821
v 0.443106 0.043964 0.870821
v 0.443106 0.043964 0.835090
v 0.436322 0.537217 0.875543
v 0.434786 0.525815 0.870821
v 0.565214 0.027323 0.870821
v 0.556894 0.043964 0.870821
v 0.556894 0.043964 0.835090
v 0.563677 0.537217 0.875543
v 0.565214 0.525815 0.870821
v 0.613110 0.000000 1.000000
v 0.565214 0.510910 0.870821
v 0.556894 0.494269 0.870821
v 0.556894 0.180559 0.835090
v 0.556894 0.494269 0.835090
v 0.559968 0.541939 0.886945
v 0.599679 0.019129 1.000000
v 0.308042 0.024278 1.000000
v 0.313977 0.027323 0.996302
v 0.691831 0.024368 1.000000
v 0.686022 0.027323 0.996302
v 0.691672 0.510696 1.000000
v 0.686054 0.510910 0.996373
v 0.691742 0.179743 1.000000
v 0.686026 0.180559 0.996310
v 0.313946 0.510910 0.996373
v 0.308105 0.510684 1.000000
v 0.313974 0.180559 0.996310
v 0.308090 0.179710 1.000000
v 0.672137 0.558312 1.000000
v 0.668436 0.554312 0.996414
v 0.686052 0.525815 0.996368
v 0.691618 0.526126 1.000000
v 0.680880 0.537217 0.996354
v 0.685297 0.539943 1.000000
v 0.308087 0.524882 1.000000
v 0.313948 0.525815 0.996368
v 0.331564 0.554312 0.996414
v 0.327918 0.558217 1.000000
v 0.319120 0.537217 0.996354
v 0.314825 0.539825 1.000000
v 0.500034 0.024207 1.000000
v 0.500000 0.027323 0.996284
v 0.500000 0.587250 1.000000
v 0.500000 0.582054 0.996597
v 0.397050 0.575413 0.996568
v 0.394712 0.580324 1.000000
v 0.406992 0.027323 0.996289
v 0.404001 0.024214 1.000000
v 0.593008 0.027323 0.996289
v 0.596019 0.024257 1.000000
v 0.602950 0.575413 0.996568
v 0.605301 0.580376 1.000000
v 0.000000 0.638873 1.000000
v 0.000000 0.638873 -0.000000
v 1.000000 0.638873 -0.000000
v 1.000000 0.638873 1.000000
v 0.726219 0.638873 1.000000
v 0.273781 0.638873 1.000000
v 0.273781 0.638873 -0.000000
v 0.726219 0.638873 -0.000000
v 0.500000 0.638873 -0.000000
v 0.500000 0.643340 1.000000
v 0.296403 0.638873 -0.000000
v 0.302075 0.640205 1.000000
v 0.697925 0.640205 1.000000
v 0.703597 0.638873 -0.000000
v 0.398201 0.641808 1.000000
v 0.398201 0.638873 -0.000000
v 0.601799 0.638873 -0.000000
v 0.601799 0.641808 1.000000
vn -1.0000 -0.0000 -0.0000
vn -0.0000 -0.0000 -1.0000
vn 1.0000 -0.0000 -0.0000
vn -0.0000 -0.0000 1.0000
vn -0.0000 -1.0000 -0.0000
vn -0.0000 1.0000 -0.0000
vn -0.9143 -0.0000 0.4051
vn 0.9143 -0.0000 0.4051
vn -0.0000 0.8417 0.5400
vn 0.4937 0.8417 0.2187
vn -0.4051 -0.0000 -0.9143
vn 0.4051 -0.0000 -0.9143
vn 0.4051 -0.0000 0.9143
vn -0.4051 -0.0000 0.9143
vn -0.4937 0.8417 0.2187
vn -0.0000 -0.9239 0.3826
vn -0.0000 -0.3826 0.9239
vn 0.1596 -0.9508 0.2656
vn 0.8447 -0.3827 0.3742
vn -0.1596 -0.9508 0.2656
vn -0.0385 -0.9450 0.3247
vn 0.6154 -0.7240 0.3116
vn 0.0385 -0.9450 0.3247
vn -0.6154 -0.7240 0.3116
vn -0.8447 -0.3827 0.3742
vn -0.0005 0.7758 0.6310
vn -0.5397 -0.0002 0.8419
vn 0.5301 -0.0001 0.8480
vn -0.5424 -0.0001 0.8401
vn 0.5294 -0.0001 0.8484
vn -0.4586 -0.3325 0.8241
vn -0.5238 -0.2382 0.8179
vn 0.5383 -0.2429 0.8070
vn 0.4673 -0.3376 0.8171
vn 0.1747 -0.5379 0.8247
vn -0.5444 -0.0009 0.8388
vn 0.5271 0.0004 0.8498
vn -0.0000 0.7664 0.6424
vn -0.0357 -0.5522 0.8330
vn 0.0360 -0.5541 0.8317
vn 0.0003 0.7691 0.6392
vn -0.0002 0.7685 0.6398
vn -0.1727 -0.5323 0.8288
vt 0.605601 0.000000
vt 0.625000 0.000000
vt 0.625000 0.250000
vt 0.605601 0.250000
vt 0.605601 0.416667
vt 0.625000 0.416667
vt 0.625000 0.500000
vt 0.605601 0.500000
vt 0.625000 0.750000
vt 0.605601 0.750000
vt 0.605601 0.916667
vt 0.625000 0.916667
vt 0.625000 1.000000
vt 0.605601 1.000000
vt 0.291667 0.500000
vt 0.375000 0.500000
vt 0.375000 0.750000
vt 0.291667 0.750000
vt 0.791667 0.500000
vt 0.875000 0.500000
vt 0.875000 0.750000
vt 0.791667 0.750000
vt 0.708333 0.500000
vt 0.708333 0.750000
vt 0.787500 0.500000
vt 0.787500 0.750000
vt 0.125000 0.500000
vt 0.208333 0.500000
vt 0.208333 0.750000
vt 0.125000 0.750000
vt 0.389226 0.840435
vt 0.444527 0.840435
vt 0.625000 0.833333
vt 0.605601 0.833333
vt 0.605601 0.912500
vt 0.625000 0.912500
vt 0.625000 0.333333
vt 0.605601 0.333333
vt 0.605601 0.412500
vt 0.625000 0.412500
vt 0.578031 0.412500
vt 0.589172 0.412500
vt 0.589172 0.416667
vt 0.578031 0.416667
vt 0.578031 0.250000
vt 0.589172 0.250000
vt 0.589172 0.333333
vt 0.578031 0.333333
vt 0.387640 0.910356
vt 0.385009 0.911670
vt 0.384992 0.893327
vt 0.387607 0.892682
vt 0.578031 0.750000
vt 0.589172 0.750000
vt 0.589172 0.833333
vt 0.578031 0.833333
vt 0.578031 0.916667
vt 0.589172 0.916667
vt 0.589172 1.000000
vt 0.578031 1.000000
vt 0.578031 0.500000
vt 0.589172 0.500000
vt 0.578031 0.000000
vt 0.589172 0.000000
vt 0.558961 0.838332
vt 0.566660 0.838333
vt 0.565514 0.839706
vt 0.556797 0.839696
vt 0.550127 0.909565
vt 0.555625 0.909565
vt 0.450025 0.840435
vt 0.566891 0.000000
vt 0.566891 0.250000
vt 0.387630 0.857315
vt 0.384960 0.856640
vt 0.384943 0.838297
vt 0.387687 0.839667
vt 0.579153 0.838335
vt 0.443918 0.839684
vt 0.442805 0.838309
vt 0.395232 0.859923
vt 0.395232 0.844845
vt 0.444527 0.909565
vt 0.389226 0.909565
vt 0.550127 0.840435
vt 0.555625 0.840435
vt 0.375000 0.000000
vt 0.438773 0.000000
vt 0.438773 0.250000
vt 0.375000 0.250000
vt 0.375000 0.416667
vt 0.438773 0.416667
vt 0.438773 0.500000
vt 0.438773 0.750000
vt 0.375000 0.916667
vt 0.438773 0.916667
vt 0.438773 1.000000
vt 0.375000 1.000000
vt 0.438773 0.833333
vt 0.375000 0.833333
vt 0.445007 0.921643
vt 0.560657 0.921643
vt 0.438773 0.333333
vt 0.375000 0.333333
vt 0.375000 0.412500
vt 0.438773 0.412500
vt 0.555625 0.892282
vt 0.564906 0.892282
vt 0.564906 0.909565
vt 0.450025 0.909565
vt 0.445007 0.828357
vt 0.445007 0.754976
vt 0.444527 0.905155
vt 0.395232 0.905155
vt 0.566891 0.416667
vt 0.566891 0.500000
vt 0.566891 0.750000
vt 0.560657 0.828357
vt 0.445007 0.995024
vt 0.566891 0.333333
vt 0.566891 0.412500
vt 0.560657 0.754976
vt 0.566891 0.833333
vt 0.566891 0.916667
vt 0.564906 0.840435
vt 0.443893 0.910347
vt 0.556862 0.910345
vt 0.558960 0.911667
vt 0.442822 0.911669
vt 0.579153 0.842002
vt 0.575920 0.843295
vt 0.575658 0.840871
vt 0.560657 0.995024
vt 0.566891 1.000000
vt 0.564965 0.910348
vt 0.565064 0.911666
vt 0.395232 0.890077
vt 0.389226 0.892282
vt 0.444527 0.844845
vt 0.550028 0.844845
vt 0.550028 0.905155
vt 0.550028 0.859923
vt 0.555625 0.857718
vt 0.444527 0.890077
vt 0.550028 0.890077
vt 0.579153 0.907998
vt 0.579153 0.911665
vt 0.573161 0.909904
vt 0.575894 0.906695
vt 0.574946 0.890265
vt 0.574946 0.905530
vt 0.574946 0.909157
vt 0.574946 0.892079
vt 0.574946 0.890646
vt 0.574946 0.906291
vt 0.574946 0.909553
vt 0.574946 0.843709
vt 0.574946 0.859354
vt 0.574946 0.859735
vt 0.574946 0.844470
vt 0.576153 0.890899
vt 0.579153 0.891499
vt 0.375000 0.895833
vt 0.589172 0.912500
vt 0.566891 0.356250
vt 0.578031 0.356250
vt 0.578031 0.375000
vt 0.566891 0.375000
vt 0.579153 0.858501
vt 0.589172 0.856250
vt 0.589172 0.875000
vt 0.579153 0.875000
vt 0.384976 0.874984
vt 0.375000 0.875000
vt 0.375000 0.854167
vt 0.575719 0.875000
vt 0.574946 0.857921
vt 0.574946 0.875000
vt 0.564906 0.875000
vt 0.564906 0.857718
vt 0.550028 0.875000
vt 0.444527 0.859923
vt 0.444527 0.875000
vt 0.395232 0.875000
vt 0.555625 0.875000
vt 0.389226 0.875000
vt 0.389226 0.857718
vt 0.438773 0.356250
vt 0.438773 0.375000
vt 0.375000 0.356250
vt 0.375000 0.375000
vt 0.387604 0.874994
vt 0.589172 0.356250
vt 0.589172 0.375000
vt 0.605601 0.356250
vt 0.625000 0.356250
vt 0.625000 0.375000
vt 0.605601 0.375000
vt 0.605601 0.856250
vt 0.625000 0.856250
vt 0.625000 0.875000
vt 0.605601 0.875000
vt 0.232718 0.750000
vt 0.250000 0.750000
vt 0.731250 0.500000
vt 0.750000 0.500000
vt 0.750000 0.750000
vt 0.731250 0.750000
vt 0.625000 0.337500
vt 0.605601 0.337500
vt 0.589172 0.337500
vt 0.578031 0.337500
vt 0.438773 0.337500
vt 0.375000 0.337500
vt 0.566891 0.337500
vt 0.589172 0.893750
vt 0.605601 0.893750
vt 0.625000 0.893750
vt 0.768750 0.500000
vt 0.768750 0.750000
vt 0.712500 0.500000
vt 0.712500 0.750000
vt 0.625000 0.837500
vt 0.605601 0.837500
vt 0.589172 0.837500
vt 0.566891 0.393750
vt 0.578031 0.393750
vt 0.438773 0.393750
vt 0.375000 0.393750
vt 0.589172 0.393750
vt 0.605601 0.393750
vt 0.625000 0.393750
vt 0.215435 0.750000
vt 0.267282 0.750000
vt 0.284565 0.750000
vt 0.576169 0.859097
vt 0.574946 0.840842
vt 0.574946 0.840447
vt 0.389226 0.840737
vt 0.389226 0.892131
vt 0.389226 0.909263
vt 0.389226 0.857869
s 0
usemtl Material.006
f 232/1/1 2/2/1 4/3/1 233/4/1
f 239/5/2 12/6/2 8/7/2 234/8/2
f 234/8/3 8/7/3 6/9/3 235/10/3
f 237/11/4 14/12/4 2/13/4 232/14/4
f 9/15/5 7/16/5 5/17/5 24/18/5
f 11/19/6 4/20/6 2/21/6 14/22/6
f 8/7/6 12/23/6 13/24/6 6/9/6
f 139/25/6 11/19/6 14/22/6 137/26/6
f 3/27/5 10/28/5 23/29/5 1/30/5
f 199/31/7 203/32/7 85/32/7 84/31/7
f 235/10/4 6/9/4 13/33/4 236/34/4
f 243/35/4 137/36/4 14/12/4 237/11/4
f 233/4/2 4/3/2 11/37/2 238/38/2
f 245/39/2 145/40/2 12/6/2 239/5/2
f 150/41/2 146/42/2 22/43/2 114/44/2
f 108/45/2 16/46/2 21/47/2 113/48/2
f 196/49/4 29/50/4 178/51/4 227/52/4
f 110/53/4 18/54/4 25/55/4 111/56/4
f 112/57/4 26/58/4 15/59/4 107/60/4
f 109/61/3 17/62/3 18/54/3 110/53/3
f 114/44/2 22/43/2 17/62/2 109/61/2
f 107/63/1 15/64/1 16/46/1 108/45/1
f 104/65/4 105/66/4 211/67/4 200/68/4
f 52/69/8 54/69/8 88/70/8 204/70/8
f 39/71/7 41/71/7 85/32/7 203/32/7
f 66/72/1 107/63/1 108/45/1 44/73/1
f 229/74/4 195/75/4 19/76/4 198/77/4
f 95/78/4 105/66/4 111/56/4 25/55/4
f 202/79/4 198/77/4 19/76/4 20/80/4
f 185/81/6 28/82/6 92/82/6 186/81/6
f 206/83/8 197/84/8 83/84/8 86/83/8
f 53/85/7 51/85/7 201/86/7 87/86/7
f 1/87/1 65/88/1 31/89/1 3/90/1
f 9/91/2 37/92/2 32/93/2 7/16/2
f 7/16/3 32/93/3 56/94/3 5/17/3
f 23/95/4 60/96/4 65/97/4 1/98/4
f 5/17/4 56/94/4 58/99/4 24/100/4
f 35/101/1 48/102/1 71/102/1 72/101/1
f 3/90/2 31/89/2 36/103/2 10/104/2
f 151/105/2 147/106/2 37/92/2 9/91/2
f 173/107/4 183/108/4 101/109/4 88/70/4
f 42/110/8 40/110/8 206/83/8 86/83/8
f 34/111/9 33/112/9 68/112/9 70/111/9
f 64/113/3 27/114/3 91/114/3 90/113/3
f 215/109/8 204/70/8 88/70/8 101/109/8
f 65/88/1 66/72/1 44/73/1 31/89/1
f 37/92/2 50/115/2 45/116/2 32/93/2
f 32/93/3 45/116/3 55/117/3 56/94/3
f 47/118/3 34/111/3 70/111/3 69/118/3
f 38/119/9 35/101/9 72/101/9 81/119/9
f 31/89/2 44/73/2 49/120/2 36/103/2
f 147/106/2 148/121/2 50/115/2 37/92/2
f 46/122/4 33/112/4 56/94/4 55/117/4
f 34/111/4 47/118/4 57/123/4 58/99/4
f 48/102/4 35/101/4 60/96/4 59/124/4
f 201/86/7 210/125/7 97/125/7 87/86/7
f 207/126/4 205/127/4 30/128/4 103/129/4
f 41/71/7 53/85/7 87/86/7 85/32/7
f 54/69/8 42/110/8 86/83/8 88/70/8
f 40/110/8 52/69/8 204/70/8 206/83/8
f 35/101/4 38/119/4 65/97/4 60/96/4
f 33/112/4 34/111/4 58/99/4 56/94/4
f 149/130/4 208/131/4 213/132/4 95/78/4
f 38/119/4 43/133/4 66/134/4 65/97/4
f 205/127/4 214/135/4 106/136/4 30/128/4
f 51/85/7 39/71/7 203/32/7 201/86/7
f 43/133/4 48/102/4 59/124/4 66/134/4
f 47/118/4 46/122/4 55/117/4 57/123/4
f 75/69/8 76/110/8 80/110/8 79/69/8
f 74/71/7 73/85/7 77/85/7 78/71/7
f 72/101/4 71/102/4 82/133/4 81/119/4
f 68/112/4 67/122/4 69/118/4 70/111/4
f 40/110/10 42/110/10 80/110/10 76/110/10
f 39/71/11 51/85/11 73/85/11 74/71/11
f 43/133/3 38/119/3 81/119/3 82/133/3
f 52/69/12 40/110/12 76/110/12 75/69/12
f 54/69/5 52/69/5 75/69/5 79/69/5
f 53/85/13 41/71/13 78/71/13 77/85/13
f 51/85/5 53/85/5 77/85/5 73/85/5
f 42/110/14 54/69/14 79/69/14 80/110/14
f 48/102/5 43/133/5 82/133/5 71/102/5
f 41/71/15 39/71/15 74/71/15 78/71/15
f 33/112/1 46/122/1 67/122/1 68/112/1
f 46/122/5 47/118/5 69/118/5 67/122/5
f 180/137/4 27/114/4 83/84/4 179/138/4
f 62/139/4 28/82/4 84/31/4 85/32/4
f 27/114/4 64/113/4 86/83/4 83/84/4
f 61/140/4 62/139/4 85/32/4 87/86/4
f 64/113/4 63/141/4 88/70/4 86/83/4
f 191/142/4 61/140/4 87/86/4 190/143/4
f 181/137/4 175/144/4 90/113/4 91/114/4
f 175/144/4 176/145/4 94/141/4 90/113/4
f 174/145/5 63/141/5 94/141/5 176/145/5
f 62/139/1 61/140/1 93/140/1 89/139/1
f 28/82/1 62/139/1 89/139/1 92/82/1
f 63/141/3 64/113/3 90/113/3 94/141/3
f 143/146/4 96/147/4 219/148/4 217/149/4
f 177/150/16 100/151/16 102/152/16 182/153/16
f 182/153/17 102/152/17 101/109/17 183/108/17
f 224/154/18 216/155/18 100/151/18 177/150/18
f 106/136/4 214/135/4 219/148/4 96/147/4
f 102/152/19 218/156/19 215/109/19 101/109/19
f 209/157/20 230/158/20 194/159/20 98/160/20
f 217/149/4 225/161/4 158/162/4 143/146/4
f 200/68/4 202/79/4 20/80/4 104/65/4
f 30/128/4 106/136/4 112/57/4 59/124/4
f 104/65/4 20/80/4 58/99/4 57/123/4
f 20/80/4 19/76/4 24/100/4 58/99/4
f 178/51/4 29/50/4 23/95/4 172/163/4
f 103/129/4 30/128/4 59/124/4 60/96/4
f 143/146/4 138/164/4 26/58/4 96/147/4
f 29/50/4 103/129/4 60/96/4 23/95/4
f 50/115/2 114/44/2 109/61/2 45/116/2
f 45/116/3 109/61/3 110/53/3 55/117/3
f 59/124/4 112/57/4 107/60/4 66/134/4
f 55/117/4 110/53/4 111/56/4 57/123/4
f 44/73/2 108/45/2 113/48/2 49/120/2
f 148/121/2 150/41/2 114/44/2 50/115/2
f 157/165/2 159/166/2 135/167/2 124/168/2
f 112/57/4 106/136/4 96/147/4 26/58/4
f 111/56/4 105/66/4 104/65/4 57/123/4
f 170/169/4 165/170/4 119/171/4 134/172/4
f 195/75/4 133/173/4 121/174/4 189/175/4
f 158/162/4 225/161/4 222/176/4 134/172/4
f 187/177/17 131/178/17 132/179/17 188/180/17
f 194/159/16 130/178/16 131/178/16 187/177/16
f 191/142/5 126/181/5 129/181/5 193/142/5
f 192/182/4 193/142/4 129/181/4 127/183/4
f 186/81/4 192/182/4 127/183/4 128/184/4
f 174/145/4 126/181/4 123/185/4 173/107/4
f 185/81/4 125/184/4 120/186/4 184/187/4
f 156/188/2 157/165/2 124/168/2 122/189/2
f 190/143/4 188/180/4 132/179/4 123/185/4
f 160/190/2 156/188/2 122/189/2 115/191/2
f 180/137/6 125/184/6 128/184/6 181/137/6
f 220/192/4 133/173/4 195/75/4 229/74/4
f 159/166/2 155/193/2 118/194/2 135/167/2
f 247/195/2 154/196/2 116/197/2 240/198/2
f 249/199/4 164/200/4 117/201/4 241/202/4
f 226/203/6 221/204/6 120/204/6 179/203/6
f 166/205/6 116/206/6 117/207/6 164/208/6
f 227/52/4 178/51/4 133/173/4 220/192/4
f 238/38/2 11/37/2 139/209/2 242/210/2
f 113/48/2 21/47/2 140/211/2 144/212/2
f 10/104/2 36/103/2 141/213/2 136/214/2
f 36/103/2 49/120/2 142/215/2 141/213/2
f 49/120/2 113/48/2 144/212/2 142/215/2
f 158/162/4 162/216/4 138/164/4 143/146/4
f 246/217/4 161/218/4 137/36/4 243/35/4
f 154/219/6 139/25/6 137/26/6 161/220/6
f 12/23/6 145/221/6 152/222/6 13/24/6
f 236/34/4 13/33/4 152/223/4 244/224/4
f 95/78/4 25/55/4 153/225/4 149/130/4
f 169/226/2 171/227/2 150/41/2 148/121/2
f 168/228/2 169/226/2 148/121/2 147/106/2
f 163/229/2 168/228/2 147/106/2 151/105/2
f 171/227/2 167/230/2 146/42/2 150/41/2
f 248/231/2 166/232/2 145/40/2 245/39/2
f 116/206/6 154/219/6 161/220/6 117/207/6
f 241/202/4 117/201/4 161/218/4 246/217/4
f 134/172/4 119/171/4 162/216/4 158/162/4
f 242/210/2 139/209/2 154/196/2 247/195/2
f 144/212/2 140/211/2 155/193/2 159/166/2
f 136/214/2 141/213/2 156/188/2 160/190/2
f 141/213/2 142/215/2 157/165/2 156/188/2
f 142/215/2 144/212/2 159/166/2 157/165/2
f 240/198/2 116/197/2 166/232/2 248/231/2
f 135/167/2 118/194/2 167/230/2 171/227/2
f 115/191/2 122/189/2 168/228/2 163/229/2
f 122/189/2 124/168/2 169/226/2 168/228/2
f 124/168/2 135/167/2 171/227/2 169/226/2
f 145/221/6 166/205/6 164/208/6 152/222/6
f 244/224/4 152/223/4 164/200/4 249/199/4
f 149/130/4 153/225/4 165/170/4 170/169/4
f 197/233/6 226/203/6 179/203/6 83/233/6
f 228/234/6 199/235/6 84/235/6 184/234/6
f 27/114/6 180/137/6 181/137/6 91/114/6
f 63/141/4 174/145/4 173/107/4 88/70/4
f 133/173/4 178/51/4 172/163/4 121/174/4
f 134/172/4 222/176/4 231/236/4 170/169/4
f 131/178/17 182/153/17 183/108/17 132/179/17
f 130/178/16 177/150/16 182/153/16 131/178/16
f 126/181/5 174/145/5 176/145/5 129/181/5
f 127/183/4 129/181/4 176/145/4 175/144/4
f 128/184/4 127/183/4 175/144/4 181/137/4
f 125/184/4 180/137/4 179/138/4 120/186/4
f 123/185/4 132/179/4 183/108/4 173/107/4
f 87/86/4 97/125/4 188/180/4 190/143/4
f 28/82/4 185/81/4 184/187/4 84/31/4
f 92/82/4 89/139/4 192/182/4 186/81/4
f 89/139/4 93/140/4 193/142/4 192/182/4
f 61/140/5 191/142/5 193/142/5 93/140/5
f 98/160/16 194/159/16 187/177/16 99/237/16
f 99/237/17 187/177/17 188/180/17 97/125/17
f 170/169/4 231/236/4 208/131/4 149/130/4
f 19/76/4 195/75/4 189/175/4 24/100/4
f 126/181/4 191/142/4 190/143/4 123/185/4
f 125/184/6 185/81/6 186/81/6 128/184/6
f 230/158/21 223/178/21 130/178/21 194/159/21
f 221/204/6 228/234/6 184/234/6 120/204/6
f 100/151/22 216/155/22 218/156/22 102/152/22
f 223/178/23 224/154/23 177/150/23 130/178/23
f 211/67/4 105/66/4 95/78/4 213/132/4
f 99/237/24 212/238/24 209/157/24 98/160/24
f 97/125/25 210/125/25 212/238/25 99/237/25
f 229/74/26 198/77/26 199/239/26 228/187/26
f 203/32/27 199/31/27 198/77/27 202/79/27
f 207/126/28 196/49/28 197/84/28 206/83/28
f 201/86/29 203/32/29 202/79/29 200/68/29
f 205/127/30 207/126/30 206/83/30 204/70/30
f 209/157/31 212/238/31 213/132/31 208/131/31
f 212/238/32 210/125/32 211/67/32 213/132/32
f 215/109/33 218/156/33 219/148/33 214/135/33
f 218/156/34 216/155/34 217/149/34 219/148/34
f 225/161/35 217/149/35 216/155/35 224/154/35
f 200/68/36 211/67/36 210/125/36 201/86/36
f 204/70/37 215/109/37 214/135/37 205/127/37
f 227/52/38 220/192/38 221/186/38 226/240/38
f 231/236/39 222/176/39 223/178/39 230/158/39
f 222/176/40 225/161/40 224/154/40 223/178/40
f 196/49/41 227/52/41 226/138/41 197/241/41
f 220/192/42 229/74/42 228/242/42 221/186/42
f 208/131/43 231/236/43 230/158/43 209/157/43
f 196/49/4 207/126/4 103/129/4 29/50/4
f 153/225/4 244/224/4 249/199/4 165/170/4
f 118/194/2 240/198/2 248/231/2 167/230/2
f 140/211/2 242/210/2 247/195/2 155/193/2
f 119/171/4 241/202/4 246/217/4 162/216/4
f 167/230/2 248/231/2 245/39/2 146/42/2
f 25/55/4 236/34/4 244/224/4 153/225/4
f 162/216/4 246/217/4 243/35/4 138/164/4
f 21/47/2 238/38/2 242/210/2 140/211/2
f 165/170/4 249/199/4 241/202/4 119/171/4
f 155/193/2 247/195/2 240/198/2 118/194/2
f 146/42/2 245/39/2 239/5/2 22/43/2
f 16/46/2 233/4/2 238/38/2 21/47/2
f 138/164/4 243/35/4 237/11/4 26/58/4
f 18/54/4 235/10/4 236/34/4 25/55/4
f 26/58/4 237/11/4 232/14/4 15/59/4
f 17/62/3 234/8/3 235/10/3 18/54/3
f 22/43/2 239/5/2 234/8/2 17/62/2
f 15/64/1 232/1/1 233/4/1 16/46/1
